# xmcd
#
# Track frame offsets: 
#        150
#        19557
#        31789
#        54083
#        64432
#        76340
#        88718
#        102369
#        140159
#        151194
#        163881
#        175775
#        188617
#
# Disc length: 2690 seconds
#
# Revision: 0
# Processed by: cddbd v1.5.2PL0 Copyright (c) Steve Scherf et al.
# Submitted via: ExactAudioCopy v1.0b4
#
DISCID=9d0a800d
DTITLE=Muddy Waters - I'm A Country Boy - Blues Roots Vol 11 (LP)
DYEAR=1900
DGENRE=Blues
TTITLE0=Tiger In Your Tank
TTITLE1=I Can' t Be Satisfied
TTITLE2=Country Boy
TTITLE3=Messin' With The Man
TTITLE4=Land Lady
TTITLE5=When The Eagle Flies
TTITLE6=Country Jail
TTITLE7=I Got My Mojo Workin'
TTITLE8=Kinfolk' s Blues
TTITLE9=Love Affair
TTITLE10=Memphis Blues (Goin' Back To Memphis)
TTITLE11=Woman Wanted
TTITLE12=Put Me On Your Lay Away Plan
EXTD=
EXTT0=
EXTT1=
EXTT2=
EXTT3=
EXTT4=
EXTT5=
EXTT6=
EXTT7=
EXTT8=
EXTT9=
EXTT10=
EXTT11=
EXTT12=
PLAYORDER=
